PathFileType	4	(X/Y/Z)	maxSprint.trc
DataRate	CameraRate	NumFrames	NumMarkers	Units	OrigDataRate	OrigDataStartFrame	OrigNumFrames
250.000000	250.000000	4	38	mm	250.000000	141	377
Frame#	Time	RASI			LASI			LAIC			RTH1			RTH2			RTH3			RTB1			RTB2			RTB3			RMT1			RMT5			LTH1			LTH2			LTH3			LTB1			LTB3			CLAV			STRN			RACR			LACR			LMT5			RPSI			LTB2			LMT1			RAIC			LCAL			T10			C7			LPSI			RCAL			*30			*31			*32			*33			RHJC			LHJC			MTOR			MPEL			
		X1	Y1	Z1	X2	Y2	Z2	X3	Y3	Z3	X4	Y4	Z4	X5	Y5	Z5	X6	Y6	Z6	X7	Y7	Z7	X8	Y8	Z8	X9	Y9	Z9	X10	Y10	Z10	X11	Y11	Z11	X12	Y12	Z12	X13	Y13	Z13	X14	Y14	Z14	X15	Y15	Z15	X16	Y16	Z16	X17	Y17	Z17	X18	Y18	Z18	X19	Y19	Z19	X20	Y20	Z20	X21	Y21	Z21	X22	Y22	Z22	X23	Y23	Z23	X24	Y24	Z24	X25	Y25	Z25	X26	Y26	Z26	X27	Y27	Z27	X28	Y28	Z28	X29	Y29	Z29	X30	Y30	Z30	X31	Y31	Z31	X32	Y32	Z32	X33	Y33	Z33	X34	Y34	Z34	X35	Y35	Z35	X36	Y36	Z36	X37	Y37	Z37	X38	Y38	Z38	

142	0.5640000000000001	-945.992553710938	988.2089843750005	293.947723388672	-955.1327514648442	1027.543579101563	79.79096221923831	-1028.325805664063	1093.598388671875	43.93420028686525	-1100.378784179688	767.9651489257815	356.8958129882814	-1087.5419921875	669.0637207031252	335.0621643066407	-1171.875610351563	607.1987304687502	331.4343261718751	-1349.110229492188	486.0107727050784	228.3263092041017	-1427.224243164063	480.8313293457034	270.147430419922	-1488.613159179688	499.3149108886721	218.1039123535157	-1769.344238281251	447.455749511719	160.4882049560547	-1802.196777343751	463.9287414550784	260.2807922363282	-842.317749023438	797.9567871093755	-1.547000527381898	-934.2863769531255	836.7445678710942	-8.484853744506839	-833.4044799804692	695.9620361328127	15.97540855407716	-697.027770996094	485.7463378906252	131.8822937011719	-697.0178833007815	350.0177612304689	158.9421997070313	-906.8491821289067	1439.827026367188	154.7644500732422	-876.9236450195317	1244.595947265625	152.5090484619141	-920.0365600585942	1484.378540039063	375.5159912109376	-1063.362548828125	1491.382934570313	4.96418333053589	-564.750427246094	115.6387100219727	105.0934448242188	-1115.024169921875	1066.458618164063	249.8271789550782	-674.8001708984377	407.4327392578127	102.5300750732422	-557.5985107421877	154.0770111083985	207.1410980224611	-1004.338073730469	1081.640502929688	343.6260070800782	-779.0874023437505	120.2434234619141	184.5243072509766	-1117.833129882813	1263.108032226563	223.0403594970704	-1032.410278320313	1512.54345703125	191.4539184570313	-1120.955810546875	1069.753662109375	153.3972778320313	-1654.081176757813	631.6835937500002	196.5251617431642	-1217.746215820313	543.8133544921877	313.7214660644532	-1660.367919921876	567.5455322265627	256.740447998047	-729.0506591796877	164.2218322753907	118.8958129882813	-753.3986816406252	613.1444091796877	37.42629623413087	-1010.366640109793	948.7127731915061	251.747127617568	-1016.399782963183	974.6762408817031	110.3893180885175	-980.6646423339847	1482.032989501954	181.6746357679368	-1034.276321411133	1037.9912109375	194.2407855987549	
143	0.5680000000000001	-917.7763061523442	988.3229980468755	293.1758728027345	-930.1030883789067	1027.2177734375	78.71768188476565	-1004.718933105469	1092.956420898438	44.6427345275879	-1068.9140625	765.7036132812502	357.417205810547	-1054.458374023438	667.0734863281252	335.766082763672	-1137.8447265625	603.5869140625002	332.6616516113282	-1315.937866210938	488.8555297851565	228.3561096191407	-1394.202270507813	485.6691589355471	270.3494567871095	-1454.678466796875	507.5562744140627	218.6104888916017	-1737.556640625001	467.1288146972659	162.9676055908204	-1768.799560546876	485.742126464844	262.855926513672	-820.8045043945317	790.0482788085942	-2.689980745315553	-911.8284301757817	831.1103515625005	-9.223581314086918	-814.6906738281255	687.9939575195315	15.37862873077393	-676.6550292968752	478.9619445800784	131.1380615234376	-674.2325439453127	343.2369995117189	158.460678100586	-880.9218750000005	1438.853759765625	154.4590759277344	-851.5437011718755	1243.333129882813	150.8608551025391	-893.8994140625005	1482.977783203125	375.4359741210939	-1037.739868164063	1489.053466796875	3.672243356704714	-543.1470947265627	107.3442916870118	102.6406250000001	-1088.120849609375	1065.21044921875	251.1286926269532	-654.2625122070315	400.6899414062502	101.4472808837891	-532.5422973632815	147.4464263916016	204.1348266601564	-977.1475219726567	1080.719116210938	344.4881591796876	-754.6629638671877	114.0436935424805	188.5527801513672	-1091.480224609375	1263.77685546875	222.7212219238282	-1006.399353027344	1511.884887695313	190.7605438232422	-1095.237426757813	1067.882202148438	155.0340118408204	-1614.497680664063	646.5258789062502	196.2341461181642	-1183.16552734375	540.3872070312502	315.0236816406251	-1622.818725585938	583.3230590820315	257.436492919922	-706.849792480469	156.7929229736329	121.1150588989258	-735.9880371093752	603.9055786132815	37.06480026245119	-982.4063041472658	948.1004852071716	251.8257442879509	-990.5428048185678	973.7736382052032	110.2689955518408	-954.740127563477	1480.692474365234	181.0819593071938	-1007.80941772461	1037.158355712891	194.5140647888184	
144	0.5720000000000001	-889.5168457031255	988.3069458007817	292.2536926269532	-905.1464843750005	1026.66552734375	77.4797058105469	-980.3845825195317	1092.38916015625	45.45803451538087	-1037.469604492188	763.4738769531252	357.495330810547	-1021.391967773438	665.058044433594	336.433563232422	-1103.479370117188	600.201843261719	333.7053833007814	-1282.780395507813	491.1058349609377	227.8045043945314	-1360.5283203125	490.0403747558596	270.5744934082032	-1420.059326171875	515.202331542969	219.4239196777345	-1704.339721679688	485.8267822265627	165.5848999023438	-1734.418701171876	506.6506958007815	265.5611572265626	-799.666870117188	782.2797241210942	-4.172555446624758	-889.4402465820317	825.7651977539067	-9.218663215637211	-795.871215820313	680.4182128906252	16.26188278198243	-656.0025024414065	472.0320434570315	130.0800018310547	-652.236267089844	336.3479309082032	157.4615478515626	-855.334106445313	1437.871459960938	153.5620880126954	-825.8073120117192	1242.142578125	150.0340118408204	-868.093627929688	1481.503173828125	375.5270080566407	-1012.813232421875	1486.156494140625	1.825932621955872	-523.1876220703127	98.96842193603521	100.1214447021485	-1060.863647460938	1063.543579101563	252.5428314208986	-634.7347412109377	393.6394653320315	99.51700592041021	-509.5743103027346	140.6211853027344	200.5828094482423	-949.7683715820317	1079.577514648438	345.2925720214845	-732.3106079101565	108.1217727661133	191.7597198486329	-1065.459350585938	1263.967407226563	222.9475097656251	-980.4757690429692	1510.971313476563	189.9836578369141	-1069.035278320313	1066.21142578125	156.234359741211	-1573.974975585938	660.5002441406252	196.9162139892579	-1148.316162109375	536.731384277344	316.5500488281251	-1584.389404296876	598.191833496094	258.1878051757814	-686.4400634765627	149.6283111572266	122.7978591918946	-718.6687622070315	595.0478515625002	37.30865478515626	-954.3798357811055	947.3615732778602	251.7989564377654	-964.6964405588301	972.6807974724043	110.0337893064089	-929.1791839599613	1479.125610351563	180.2246716320515	-981.1405639648442	1036.181869506836	194.6276473999024	
145	0.5760000000000001	-861.2219848632817	988.239868164063	291.5036621093751	-880.3945922851567	1026.415771484375	75.90460205078128	-955.9548339843755	1091.683471679688	46.1554641723633	-1006.27294921875	761.2720947265627	357.5862731933595	-988.3258666992192	662.9908447265627	337.004852294922	-1069.55517578125	596.6663818359377	335.0355834960939	-1248.483642578125	492.9364929199221	228.6224060058595	-1326.019165039063	494.4421081542971	270.974090576172	-1384.769897460938	522.2253417968752	220.5642242431642	-1669.973388671876	503.6930236816409	168.2811126708985	-1698.377563476563	526.1330566406252	268.327362060547	-778.684692382813	774.6328125000005	-5.819901466369631	-867.1163940429692	820.4960937500005	-8.933967590332035	-777.0078735351567	673.3562011718752	18.0500774383545	-635.2802734375002	464.9252929687502	128.7073516845704	-631.0554809570315	329.3467407226564	156.3650970458985	-829.4958496093755	1436.515502929688	153.0451660156251	-799.738891601563	1240.828491210938	149.9599761962891	-842.5757446289067	1479.737060546875	375.7520141601564	-987.2128295898442	1483.074096679688	0.2836180925369264	-505.2603454589846	90.68782806396487	96.96216583251959	-1033.463989257813	1061.739013671875	253.8181304931642	-616.7310180664065	385.8875732421877	96.88768005371099	-488.9187927246096	132.8450317382813	196.9236907958986	-922.1212768554692	1078.202758789063	345.8333740234376	-711.9417724609377	102.135482788086	193.9054718017579	-1039.315795898438	1263.793579101563	223.2392120361329	-954.6034545898442	1509.87890625	189.2318572998047	-1043.01025390625	1064.419799804688	157.6408843994141	-1532.826782226563	673.6112060546877	197.6192169189454	-1113.332885742188	532.8598632812502	318.298309326172	-1545.162963867188	611.9295654296877	259.0403137207032	-667.747985839844	142.6540679931641	123.8580627441407	-701.3660278320315	586.4709472656252	38.10794067382814	-926.322867858745	946.3775847914696	251.7969830795723	-938.9780623328769	971.5762168874353	109.4872818769838	-903.4719696044926	1477.301391601563	179.5781638920308	-954.5227050781253	1035.20361328125	194.7168197631837	
